<svg width="16" height="18" viewBox="0 0 16 18" fill="none" xmlns="http://www.w3.org/2000/svg">
<g clip-path="url(#clip0_386_1829)">
<path d="M14.75 0C14.1875 0 10.25 1.125 10.25 6.1875V10.125C10.25 11.366 11.259 12.375 12.5 12.375H13.625V16.875C13.625 17.4973 14.1277 18 14.75 18C15.3723 18 15.875 17.4973 15.875 16.875V12.375V8.4375V1.125C15.875 0.502734 15.3723 0 14.75 0ZM2.375 0.5625C2.375 0.274219 2.16055 0.0351562 1.87227 0.00351563C1.58398 -0.028125 1.32734 0.161719 1.26406 0.439453L0.198828 5.23125C0.149609 5.45273 0.125 5.67773 0.125 5.90273C0.125 7.51641 1.35898 8.8418 2.9375 8.98594V16.875C2.9375 17.4973 3.44023 18 4.0625 18C4.68477 18 5.1875 17.4973 5.1875 16.875V8.98594C6.76602 8.8418 8 7.51641 8 5.90273C8 5.67773 7.97539 5.45273 7.92617 5.23125L6.86094 0.439453C6.79766 0.158203 6.53398 -0.028125 6.24922 0.00351563C5.96445 0.0351562 5.75 0.274219 5.75 0.5625V5.28047C5.75 5.47031 5.59531 5.625 5.40547 5.625C5.22617 5.625 5.07852 5.48789 5.06094 5.30859L4.62148 0.513281C4.59688 0.221484 4.3543 0 4.0625 0C3.7707 0 3.52813 0.221484 3.50352 0.513281L3.06758 5.30859C3.05 5.48789 2.90234 5.625 2.72305 5.625C2.5332 5.625 2.37852 5.47031 2.37852 5.28047V0.5625H2.375ZM4.07305 5.90625H4.0625H4.05195L4.0625 5.88164L4.07305 5.90625Z" fill="white"/>
</g>
<defs>
<clipPath id="clip0_386_1829">
<path d="M0.125 0H15.875V18H0.125V0Z" fill="white"/>
</clipPath>
</defs>
</svg>
