<svg width="64" height="64" viewBox="0 0 64 64" fill="none" xmlns="http://www.w3.org/2000/svg">
<path d="M32 0C49.6731 0 64 14.3269 64 32C64 49.6731 49.6731 64 32 64C14.3269 64 0 49.6731 0 32C0 14.3269 14.3269 0 32 0Z" fill="white"/>
<path d="M32 0C49.6731 0 64 14.3269 64 32C64 49.6731 49.6731 64 32 64C14.3269 64 0 49.6731 0 32C0 14.3269 14.3269 0 32 0Z" stroke="#FEECEC"/>
<path d="M47 50H17V14H47V50Z" stroke="#FEECEC"/>
<g clip-path="url(#clip0_432_1423)">
<path d="M42.0957 16.1758C42.7754 15.8008 43.6309 16.041 44.0059 16.7207L44.2871 17.2305C45.418 19.2637 45.4473 21.666 44.4863 23.6758C46.0508 25.3516 47 27.5957 47 30.0625C47 31.1465 46.8184 32.1895 46.4785 33.1563C46.1211 34.1699 44.8086 34.1113 44.3223 33.1504L43.6367 31.7793C43.3965 31.3047 42.9102 31 42.377 31H38.0938C37.3145 31 36.6875 30.3731 36.6875 29.5938V24.9063C36.6875 24.127 36.0605 23.5 35.2812 23.5H34.2793C33.0312 23.5 32.5215 22.0996 33.6465 21.5723C34.8535 21.0039 36.2012 20.6875 37.625 20.6875C39.2832 20.6875 40.8359 21.1152 42.1836 21.8711C42.5059 20.8047 42.4004 19.6211 41.832 18.6016L41.5508 18.0918C41.1758 17.4121 41.416 16.5566 42.0957 16.1816V16.1758ZM27.0312 36.2441L32.4688 25.375H34.8125V30.0625C34.8125 31.6152 36.0723 32.875 37.625 32.875H42.0898L43.4902 35.6758C38.8145 42.0098 31.3145 46 23.0469 46H19.6016C18.166 46 17 44.834 17 43.3984C17 42.1797 17.8496 41.125 19.0391 40.8613L21.957 40.2109C24.1602 39.7188 26.0293 38.2656 27.0371 36.2441H27.0312Z" fill="#F23D3D"/>
</g>
<defs>
<clipPath id="clip0_432_1423">
<path d="M17 16H47V46H17V16Z" fill="white"/>
</clipPath>
</defs>
</svg>
