<svg width="50" height="50" viewBox="0 0 50 50" fill="none" xmlns="http://www.w3.org/2000/svg">
<g clip-path="url(#clip0_415_1613)">
<path fill-rule="evenodd" clip-rule="evenodd" d="M25.0149 0.00593081C28.4747 0.00593081 31.9347 -0.0100848 35.3944 0.0105207C38.6493 0.0299542 41.7063 0.772239 44.3551 2.751C47.814 5.33513 49.5841 8.86496 49.9136 13.1243C50.0296 14.6233 49.9935 16.1354 49.9954 17.6415C50.0033 23.4822 49.999 29.3231 49.9983 35.1639C49.9981 37.5495 49.6663 39.8786 48.6569 42.06C46.6091 46.485 43.0372 48.904 38.3244 49.7424C37.3418 49.9171 36.3281 49.9824 35.3284 49.9854C28.4274 50.0057 21.5262 50.001 14.6251 49.9939C11.0365 49.9902 7.75437 49.0425 4.95745 46.7143C2.1158 44.3491 0.616284 41.2556 0.149829 37.6288C0.0693605 37.0032 0.0200929 36.3688 0.0195069 35.7384C0.0127687 28.484 -0.0310302 21.229 0.0400636 13.9753C0.0789308 10.0121 1.39856 6.49822 4.34885 3.72942C6.79607 1.43293 9.77073 0.232982 13.0763 0.11555C17.0511 -0.025661 21.0349 0.0821027 25.0148 0.0821027C25.0148 0.0566632 25.0148 0.0312726 25.0149 0.00593081ZM24.9759 45.3793C28.305 45.3793 31.634 45.3927 34.9629 45.3701C35.8335 45.3642 36.7167 45.321 37.571 45.1665C40.834 44.5766 43.3148 42.9399 44.6149 39.7627C45.2755 38.1487 45.4912 36.4168 45.5193 34.7394C45.6285 28.2321 45.567 21.7218 45.5593 15.2125C45.5584 14.5073 45.5508 13.7943 45.451 13.0985C45.0036 9.97409 43.6491 7.41321 40.7737 5.85588C39.1688 4.98669 37.4265 4.65852 35.6155 4.65793C28.6413 4.65588 21.6672 4.65383 14.693 4.66218C14.0628 4.66296 13.4269 4.69783 12.8033 4.78547C9.25124 5.2842 6.63489 7.03479 5.32551 10.4788C4.79709 11.8686 4.62825 13.3249 4.62795 14.8035C4.62693 21.6103 4.62039 28.4169 4.63689 35.2238C4.63889 36.0566 4.701 36.9013 4.85007 37.7196C5.51135 41.3502 7.53582 43.8456 11.1412 44.849C12.3427 45.1833 13.627 45.3309 14.8777 45.3561C18.2426 45.4237 21.6096 45.3791 24.9759 45.3793Z" fill="white"/>
<path fill-rule="evenodd" clip-rule="evenodd" d="M37.8858 24.9203C37.8827 32.0383 32.075 37.8279 24.9551 37.8105C17.8325 37.7932 12.0964 32.0441 12.0923 24.9184C12.0881 17.8007 17.8872 12.0107 25.0124 12.0184C32.0761 12.0261 37.889 17.8517 37.8858 24.9203ZM24.9939 33.1634C29.5353 33.1669 33.2756 29.4293 33.2678 24.8956C33.2599 20.3933 29.5291 16.6555 25.0247 16.6372C20.4899 16.6188 16.7514 20.345 16.7417 24.8928C16.7322 29.4471 20.4365 33.1598 24.9939 33.1634Z" fill="white"/>
<path fill-rule="evenodd" clip-rule="evenodd" d="M38.3638 14.6161C36.7516 14.6017 35.4807 13.3116 35.4859 11.6947C35.4909 10.0594 36.7937 8.77717 38.4385 8.7884C40.0325 8.79944 41.3314 10.115 41.3266 11.7134C41.3217 13.3345 39.9986 14.6307 38.3638 14.6161Z" fill="white"/>
</g>
<defs>
<clipPath id="clip0_415_1613">
<rect width="50" height="50" fill="white"/>
</clipPath>
</defs>
</svg>
