<svg width="64" height="64" viewBox="0 0 64 64" fill="none" xmlns="http://www.w3.org/2000/svg">
<path d="M32 0C49.6731 0 64 14.3269 64 32C64 49.6731 49.6731 64 32 64C14.3269 64 0 49.6731 0 32C0 14.3269 14.3269 0 32 0Z" fill="#545454"/>
<path d="M32 0C49.6731 0 64 14.3269 64 32C64 49.6731 49.6731 64 32 64C14.3269 64 0 49.6731 0 32C0 14.3269 14.3269 0 32 0Z" stroke="#FEECEC"/>
<path d="M47 50H17V14H47V50Z" stroke="#FEECEC"/>
<path d="M47 48H17V18H47V48Z" stroke="#FEECEC"/>
<path d="M47 32.0742V33H17C17 31.8281 17.5859 30.7324 18.5586 30.082L33.1074 20.3848C33.6113 20.0508 34.1973 19.875 34.8008 19.875C41.5391 19.875 47 25.3359 47 32.0742ZM47 34.875V42.375C47 44.4434 45.3184 46.125 43.25 46.125H20.75C18.6816 46.125 17 44.4434 17 42.375V34.875H47Z" fill="#FFCA28"/>
</svg>
