<svg width="16" height="24" viewBox="0 0 16 24" fill="none" xmlns="http://www.w3.org/2000/svg">
<path d="M16 24H0V0H16V24Z" stroke="#E5E7EB"/>
<g clip-path="url(#clip0_386_1766)">
<path d="M11 4C10.5969 4 10.2312 4.24375 10.075 4.61875C9.91875 4.99375 10.0062 5.42188 10.2906 5.70938L11.5844 7L6.29375 12.2937C5.90312 12.6844 5.90312 13.3188 6.29375 13.7094C6.68437 14.1 7.31875 14.1 7.70937 13.7094L13 8.41563L14.2937 9.70937C14.5813 9.99687 15.0094 10.0813 15.3844 9.925C15.7594 9.76875 16.0031 9.40625 16.0031 9V5C16.0031 4.44687 15.5563 4 15.0031 4H11ZM2.5 5C1.11875 5 0 6.11875 0 7.5V17.5C0 18.8813 1.11875 20 2.5 20H12.5C13.8813 20 15 18.8813 15 17.5V14C15 13.4469 14.5531 13 14 13C13.4469 13 13 13.4469 13 14V17.5C13 17.775 12.775 18 12.5 18H2.5C2.225 18 2 17.775 2 17.5V7.5C2 7.225 2.225 7 2.5 7H6C6.55312 7 7 6.55312 7 6C7 5.44687 6.55312 5 6 5H2.5Z" fill="#E63946"/>
</g>
<defs>
<clipPath id="clip0_386_1766">
<path d="M0 4H16V20H0V4Z" fill="white"/>
</clipPath>
</defs>
</svg>
