<svg width="64" height="64" viewBox="0 0 64 64" fill="none" xmlns="http://www.w3.org/2000/svg">
<path d="M32 0C49.6731 0 64 14.3269 64 32C64 49.6731 49.6731 64 32 64C14.3269 64 0 49.6731 0 32C0 14.3269 14.3269 0 32 0Z" fill="white"/>
<path d="M32 0C49.6731 0 64 14.3269 64 32C64 49.6731 49.6731 64 32 64C14.3269 64 0 49.6731 0 32C0 14.3269 14.3269 0 32 0Z" stroke="#FEECEC"/>
<path fill-rule="evenodd" clip-rule="evenodd" d="M49.0834 32.0938C49.0834 41.5286 41.4349 49.1772 32.0001 49.1772C22.5652 49.1772 14.9167 41.5286 14.9167 32.0938C14.9167 22.659 22.5652 15.0105 32.0001 15.0105C41.4349 15.0105 49.0834 22.6589 49.0834 32.0938ZM26.0209 28.5833C27.4361 28.5833 28.5834 27.436 28.5834 26.0208C28.5834 24.6056 27.4361 23.4583 26.0209 23.4583C24.6056 23.4583 23.4584 24.6056 23.4584 26.0208C23.4584 27.436 24.6056 28.5833 26.0209 28.5833ZM32.0001 37.3254C29.9461 37.3254 28.1624 36.259 27.2843 34.6929C27.1095 34.382 26.9721 34.0515 26.8749 33.7083L23.4584 34.51C23.621 35.084 23.8508 35.6368 24.1431 36.1569C25.6007 38.7563 28.5701 40.5416 32.0001 40.5416C35.43 40.5416 38.3994 38.7563 39.857 36.1569C40.1493 35.6368 40.3791 35.084 40.5417 34.51L37.1252 33.7083C37.028 34.0515 36.8906 34.382 36.7158 34.6929C35.8377 36.259 34.054 37.3254 32.0001 37.3254ZM37.9792 28.5833C39.3945 28.5833 40.5417 27.436 40.5417 26.0208C40.5417 24.6056 39.3945 23.4583 37.9792 23.4583C36.564 23.4583 35.4167 24.6056 35.4167 26.0208C35.4167 27.436 36.564 28.5833 37.9792 28.5833Z" fill="#545454"/>
</svg>
