<svg width="45" height="45" viewBox="0 0 45 45" fill="none" xmlns="http://www.w3.org/2000/svg">
<rect width="45" height="45" rx="22.5" fill="white"/>
<g clip-path="url(#clip0_600_5460)">
<path d="M24.6017 15.4374C24.5051 15.3924 24.3984 15.3737 24.2924 15.3833C24.1863 15.3928 24.0846 15.4303 23.9977 15.4918L19.2989 18.9947H14.6665C14.5063 18.9947 14.3527 19.0584 14.2394 19.1716C14.1261 19.2849 14.0625 19.4385 14.0625 19.5987V25.6383C14.0625 25.7985 14.1261 25.9521 14.2394 26.0654C14.3527 26.1787 14.5063 26.2423 14.6665 26.2423H19.2989L23.9675 29.7453C24.0572 29.8126 24.1639 29.8536 24.2756 29.8636C24.3873 29.8737 24.4996 29.8525 24.6 29.8023C24.7003 29.7522 24.7847 29.6751 24.8436 29.5796C24.9026 29.4842 24.9338 29.3743 24.9338 29.2621V15.9749C24.9335 15.8634 24.9023 15.7541 24.8436 15.6593C24.785 15.5644 24.7013 15.4876 24.6017 15.4374Z" fill="#F23D3D"/>
<path d="M29.4092 22.6185L30.7923 21.2355C30.8912 21.1199 30.9429 20.9713 30.937 20.8193C30.9312 20.6673 30.8681 20.5231 30.7606 20.4155C30.653 20.308 30.5088 20.245 30.3568 20.2391C30.2048 20.2332 30.0562 20.2849 29.9407 20.3839L28.5576 21.767L27.1745 20.3839C27.059 20.2849 26.9104 20.2332 26.7584 20.2391C26.6063 20.245 26.4622 20.308 26.3546 20.4155C26.247 20.5231 26.184 20.6673 26.1782 20.8193C26.1723 20.9713 26.224 21.1199 26.3229 21.2355L27.706 22.6185L26.3229 24.0016C26.2597 24.0558 26.2084 24.1224 26.1721 24.1973C26.1359 24.2722 26.1155 24.3539 26.1123 24.437C26.1091 24.5202 26.1231 24.6032 26.1534 24.6807C26.1838 24.7582 26.2299 24.8286 26.2887 24.8874C26.3476 24.9463 26.418 24.9923 26.4955 25.0227C26.573 25.0531 26.6559 25.0671 26.7391 25.0639C26.8223 25.0606 26.9039 25.0403 26.9788 25.004C27.0537 24.9678 27.1204 24.9164 27.1745 24.8532L28.5576 23.4701L29.9407 24.8532C30.0562 24.9521 30.2048 25.0038 30.3568 24.998C30.5088 24.9921 30.653 24.9291 30.7606 24.8215C30.8681 24.714 30.9312 24.5698 30.937 24.4178C30.9429 24.2658 30.8912 24.1172 30.7923 24.0016L29.4092 22.6185Z" fill="#F23D3D"/>
</g>
<defs>
<clipPath id="clip0_600_5460">
<rect width="16.875" height="16.875" fill="white" transform="translate(14.0625 14.0625)"/>
</clipPath>
</defs>
</svg>
