<svg width="42" height="48" viewBox="0 0 42 48" fill="none" xmlns="http://www.w3.org/2000/svg">
<path d="M41.9878 19.6791C37.8605 19.6889 33.8343 18.4018 30.4781 15.9994V32.7544C30.477 35.8576 29.5285 38.8865 27.7595 41.4361C25.9904 43.9857 23.4852 45.9344 20.5787 47.0217C17.6722 48.1091 14.503 48.2832 11.495 47.5207C8.48686 46.7583 5.78323 45.0957 3.74557 42.7552C1.70791 40.4147 0.433353 37.5079 0.0923177 34.4235C-0.248718 31.3391 0.360027 28.2241 1.83716 25.495C3.31428 22.7659 5.58939 20.5528 8.35825 19.1516C11.1271 17.7504 14.2578 17.228 17.3316 17.6541V26.0813C15.925 25.6388 14.4146 25.6521 13.016 26.1193C11.6175 26.5865 10.4023 27.4837 9.54403 28.6827C8.68577 29.8817 8.22832 31.3212 8.23701 32.7957C8.24569 34.2702 8.72007 35.7043 9.59239 36.8931C10.4647 38.0819 11.6904 38.9647 13.0943 39.4154C14.4983 39.8661 16.0088 39.8616 17.41 39.4026C18.8113 38.9436 20.0317 38.0536 20.897 36.8597C21.7623 35.6657 22.2282 34.2289 22.2281 32.7544V0H30.4781C30.4724 0.696694 30.5308 1.39244 30.6525 2.07844C30.9392 3.60983 31.5353 5.06663 32.4043 6.35975C33.2733 7.65287 34.397 8.75511 35.7066 9.59906C37.5698 10.831 39.7542 11.4877 41.9878 11.4872V19.6791Z" fill="white"/>
</svg>
