<svg width="42" height="52" viewBox="0 0 42 52" fill="none" xmlns="http://www.w3.org/2000/svg">
<path d="M21 0C32.598 0 42 9.40202 42 21V31C42 42.598 32.598 52 21 52C9.40202 52 0 42.598 0 31V21C0 9.40202 9.40202 0 21 0Z" fill="#E63946"/>
<path d="M21 0C32.598 0 42 9.40202 42 21V31C42 42.598 32.598 52 21 52C9.40202 52 0 42.598 0 31V21C0 9.40202 9.40202 0 21 0Z" stroke="#E5E7EB"/>
<path d="M30 40H12V12H30V40Z" stroke="#E5E7EB"/>
<g clip-path="url(#clip0_432_1401)">
<path d="M12 24.4375C12 21.8477 14.0977 19.75 16.6875 19.75H17C17.6914 19.75 18.25 20.3086 18.25 21C18.25 21.6914 17.6914 22.25 17 22.25H16.6875C15.4805 22.25 14.5 23.2305 14.5 24.4375V24.75H17C18.3789 24.75 19.5 25.8711 19.5 27.25V29.75C19.5 31.1289 18.3789 32.25 17 32.25H14.5C13.1211 32.25 12 31.1289 12 29.75V28.5V27.25V24.4375ZM22 24.4375C22 21.8477 24.0977 19.75 26.6875 19.75H27C27.6914 19.75 28.25 20.3086 28.25 21C28.25 21.6914 27.6914 22.25 27 22.25H26.6875C25.4805 22.25 24.5 23.2305 24.5 24.4375V24.75H27C28.3789 24.75 29.5 25.8711 29.5 27.25V29.75C29.5 31.1289 28.3789 32.25 27 32.25H24.5C23.1211 32.25 22 31.1289 22 29.75V28.5V27.25V24.4375Z" fill="white"/>
</g>
<defs>
<clipPath id="clip0_432_1401">
<path d="M12 16H29.5V36H12V16Z" fill="white"/>
</clipPath>
</defs>
</svg>
