<svg width="50" height="50" viewBox="0 0 50 50" fill="none" xmlns="http://www.w3.org/2000/svg">
<g clip-path="url(#clip0_415_1628)">
<path d="M50 24.3561C50 37.8078 39.0117 48.7122 25.4544 48.7122C21.1506 48.7122 17.1072 47.6122 13.5894 45.6817L0 50L4.43056 36.9322C2.19556 33.2622 0.908333 28.9578 0.908333 24.3561C0.908333 10.9044 11.8978 0 25.4544 0C39.0128 0 50 10.9044 50 24.3561ZM25.4544 3.87889C14.0744 3.87889 4.81778 13.065 4.81778 24.3561C4.81778 28.8367 6.27833 32.9861 8.74889 36.3617L6.17056 43.9667L14.1011 41.4461C17.3594 43.5856 21.2628 44.8333 25.455 44.8333C36.8333 44.8333 46.0917 35.6483 46.0917 24.3572C46.0917 13.0661 36.8339 3.87889 25.4544 3.87889ZM37.8494 29.9656C37.6978 29.7172 37.2972 29.5672 36.6961 29.2689C36.0939 28.9706 33.135 27.5256 32.585 27.3272C32.0333 27.1283 31.6311 27.0283 31.2306 27.6256C30.83 28.2233 29.6767 29.5672 29.325 29.9656C28.9739 30.365 28.6233 30.415 28.0211 30.1161C27.42 29.8178 25.4817 29.1867 23.1833 27.1533C21.395 25.5711 20.1872 23.6178 19.8361 23.0194C19.4856 22.4222 19.7994 22.0994 20.1 21.8022C20.3711 21.5344 20.7022 21.105 21.0028 20.7567C21.3044 20.4078 21.4044 20.1594 21.6039 19.7606C21.8056 19.3622 21.705 19.0139 21.5539 18.7144C21.4039 18.4161 20.1994 15.4783 19.6983 14.2828C19.1972 13.0883 18.6967 13.2872 18.345 13.2872C17.9944 13.2872 17.5928 13.2372 17.1917 13.2372C16.7906 13.2372 16.1383 13.3867 15.5867 13.9839C15.0356 14.5817 13.4817 16.0261 13.4817 18.9633C13.4817 21.9011 15.6367 24.7394 15.9383 25.1372C16.2389 25.535 20.0994 31.7594 26.2161 34.15C32.3333 36.5394 32.3333 35.7422 33.4367 35.6422C34.5389 35.5428 36.9956 34.1983 37.4989 32.805C37.9989 31.4094 37.9989 30.2144 37.8494 29.9656Z" fill="white"/>
</g>
<defs>
<clipPath id="clip0_415_1628">
<rect width="50" height="50" fill="white"/>
</clipPath>
</defs>
</svg>
