<svg width="64" height="59" viewBox="0 0 64 59" fill="none" xmlns="http://www.w3.org/2000/svg">
<g clip-path="url(#clip0_687_1429)">
<path d="M20.6125 -1.92511C19.65 -4.25011 17.1125 -5.48761 14.6875 -4.82511L3.6875 -1.82511C1.5125 -1.22511 0 0.749888 0 2.99989C0 33.9249 25.075 58.9999 56 58.9999C58.25 58.9999 60.225 57.4874 60.825 55.3124L63.825 44.3124C64.4875 41.8874 63.25 39.3499 60.925 38.3874L48.925 33.3874C46.8875 32.5374 44.525 33.1249 43.1375 34.8374L38.0875 40.9999C29.2875 36.8374 22.1625 29.7124 18 20.9124L24.1625 15.8749C25.875 14.4749 26.4625 12.1249 25.6125 10.0874L20.6125 -1.91261V-1.92511Z" fill="#FFCA28"/>
</g>
<defs>
<clipPath id="clip0_687_1429">
<path d="M0 -5H64V59H0V-5Z" fill="white"/>
</clipPath>
</defs>
</svg>
