<svg width="48" height="64" viewBox="0 0 48 64" fill="none" xmlns="http://www.w3.org/2000/svg">
<g clip-path="url(#clip0_687_1435)">
<path d="M26.9625 62.4C33.375 54.375 48 34.925 48 24C48 10.75 37.25 0 24 0C10.75 0 0 10.75 0 24C0 34.925 14.625 54.375 21.0375 62.4C22.575 64.3125 25.425 64.3125 26.9625 62.4ZM24 16C26.1217 16 28.1566 16.8429 29.6569 18.3431C31.1571 19.8434 32 21.8783 32 24C32 26.1217 31.1571 28.1566 29.6569 29.6569C28.1566 31.1571 26.1217 32 24 32C21.8783 32 19.8434 31.1571 18.3431 29.6569C16.8429 28.1566 16 26.1217 16 24C16 21.8783 16.8429 19.8434 18.3431 18.3431C19.8434 16.8429 21.8783 16 24 16Z" fill="#FFCA28"/>
</g>
<defs>
<clipPath id="clip0_687_1435">
<path d="M0 0H48V64H0V0Z" fill="white"/>
</clipPath>
</defs>
</svg>
