<svg width="64" height="64" viewBox="0 0 64 64" fill="none" xmlns="http://www.w3.org/2000/svg">
<path d="M61.3335 26.2454C55.8287 26.2586 50.459 24.5419 45.9828 21.3379V43.6836C45.9813 47.8222 44.7162 51.8618 42.3568 55.2621C39.9974 58.6624 36.6561 61.2614 32.7797 62.7115C28.9033 64.1617 24.6765 64.3939 20.6645 63.377C16.6526 62.3602 13.0467 60.1428 10.329 57.0214C7.61137 53.8999 5.91147 50.0232 5.45662 45.9097C5.00178 41.7961 5.81367 37.6417 7.78375 34.0019C9.75382 30.3622 12.7882 27.4106 16.4811 25.5419C20.174 23.6732 24.3494 22.9764 28.449 23.5447V34.7838C26.573 34.1937 24.5585 34.2115 22.6932 34.8346C20.8279 35.4577 19.2072 36.6542 18.0626 38.2533C16.9179 39.8524 16.3078 41.7722 16.3194 43.7387C16.3309 45.7052 16.9636 47.6178 18.1271 49.2033C19.2905 50.7888 20.9252 51.9661 22.7977 52.5672C24.6702 53.1682 26.6847 53.1623 28.5536 52.5501C30.4225 51.938 32.0502 50.751 33.2043 49.1587C34.3583 47.5664 34.9797 45.6501 34.9796 43.6836V0H45.9828C45.9752 0.92916 46.053 1.85705 46.2154 2.77195C46.5977 4.81432 47.3927 6.75722 48.5517 8.48182C49.7107 10.2064 51.2094 11.6764 52.9561 12.802C55.441 14.445 58.3544 15.3208 61.3335 15.3201V26.2454Z" fill="white"/>
</svg>
